<mxfile host="app.diagrams.net" agent="Mozilla/5.0 (Windows NT 10.0; Win64; x64) AppleWebKit/537.36 (KHTML, like Gecko) Chrome/132.0.0.0 Safari/537.36 Edg/132.0.0.0" version="26.0.10">
  <diagram name="Page-1" id="K0oCxp89qDIXr9hEt2mJ">
    <mxGraphModel dx="1475" dy="1024" grid="1" gridSize="10" guides="1" tooltips="1" connect="1" arrows="1" fold="1" page="1" pageScale="1" pageWidth="850" pageHeight="1100" math="0" shadow="0">
      <root>
        <mxCell id="0" />
        <mxCell id="1" parent="0" />
        <mxCell id="KVgxJj5szUVQEYvC7GFh-10" style="edgeStyle=orthogonalEdgeStyle;rounded=0;orthogonalLoop=1;jettySize=auto;html=1;exitX=1;exitY=0.5;exitDx=0;exitDy=0;entryX=0;entryY=0.5;entryDx=0;entryDy=0;" edge="1" parent="1" source="KbBeaDYyXb4g7AQegkjA-1" target="KbBeaDYyXb4g7AQegkjA-21">
          <mxGeometry relative="1" as="geometry" />
        </mxCell>
        <mxCell id="KbBeaDYyXb4g7AQegkjA-1" value="" style="shape=image;html=1;verticalAlign=top;verticalLabelPosition=bottom;labelBackgroundColor=#ffffff;imageAspect=0;aspect=fixed;image=https://cdn4.iconfinder.com/data/icons/essentials-74/24/004_-_Website-128.png" parent="1" vertex="1">
          <mxGeometry x="280" y="330" width="128" height="128" as="geometry" />
        </mxCell>
        <mxCell id="KbBeaDYyXb4g7AQegkjA-3" style="edgeStyle=orthogonalEdgeStyle;rounded=0;orthogonalLoop=1;jettySize=auto;html=1;entryX=0;entryY=0.5;entryDx=0;entryDy=0;" parent="1" source="KbBeaDYyXb4g7AQegkjA-2" target="KbBeaDYyXb4g7AQegkjA-1" edge="1">
          <mxGeometry relative="1" as="geometry" />
        </mxCell>
        <mxCell id="KbBeaDYyXb4g7AQegkjA-2" value="End User" style="verticalLabelPosition=bottom;html=1;verticalAlign=top;align=center;strokeColor=none;fillColor=#00BEF2;shape=mxgraph.azure.user;" parent="1" vertex="1">
          <mxGeometry x="50" y="369" width="47.5" height="50" as="geometry" />
        </mxCell>
        <mxCell id="KbBeaDYyXb4g7AQegkjA-4" value="Submits Intent" style="text;html=1;align=center;verticalAlign=middle;whiteSpace=wrap;rounded=0;" parent="1" vertex="1">
          <mxGeometry x="140" y="360" width="100" height="30" as="geometry" />
        </mxCell>
        <mxCell id="KbBeaDYyXb4g7AQegkjA-6" value="e.g&lt;br&gt;Back xyz file every 1 hour include server 1, server2" style="text;html=1;align=center;verticalAlign=middle;whiteSpace=wrap;rounded=0;" parent="1" vertex="1">
          <mxGeometry x="140" y="428" width="100" height="30" as="geometry" />
        </mxCell>
        <mxCell id="KbBeaDYyXb4g7AQegkjA-7" value="Admin Portal for Autonomous Agent" style="text;html=1;align=center;verticalAlign=middle;whiteSpace=wrap;rounded=0;" parent="1" vertex="1">
          <mxGeometry x="294" y="480" width="100" height="30" as="geometry" />
        </mxCell>
        <mxCell id="KbBeaDYyXb4g7AQegkjA-8" value="" style="image;aspect=fixed;html=1;points=[];align=center;fontSize=12;image=img/lib/azure2/databases/Azure_Cosmos_DB.svg;" parent="1" vertex="1">
          <mxGeometry x="460" y="160" width="64" height="64" as="geometry" />
        </mxCell>
        <mxCell id="KbBeaDYyXb4g7AQegkjA-9" value="Cosmos DB&amp;nbsp;&lt;div&gt;User Intent Container&lt;/div&gt;" style="text;html=1;align=center;verticalAlign=middle;whiteSpace=wrap;rounded=0;" parent="1" vertex="1">
          <mxGeometry x="442" y="230" width="100" height="30" as="geometry" />
        </mxCell>
        <mxCell id="KbBeaDYyXb4g7AQegkjA-10" style="edgeStyle=orthogonalEdgeStyle;rounded=0;orthogonalLoop=1;jettySize=auto;html=1;exitX=0.5;exitY=0;exitDx=0;exitDy=0;entryX=-0.002;entryY=0.505;entryDx=0;entryDy=0;entryPerimeter=0;" parent="1" source="KbBeaDYyXb4g7AQegkjA-1" target="KbBeaDYyXb4g7AQegkjA-8" edge="1">
          <mxGeometry relative="1" as="geometry" />
        </mxCell>
        <mxCell id="KbBeaDYyXb4g7AQegkjA-21" value="dapr - Long Running Application" style="rounded=0;whiteSpace=wrap;html=1;verticalAlign=top;align=left;" parent="1" vertex="1">
          <mxGeometry x="550" y="261.61" width="700" height="261" as="geometry" />
        </mxCell>
        <mxCell id="KbBeaDYyXb4g7AQegkjA-22" value="Actor Instance for user - testuser1" style="rounded=0;whiteSpace=wrap;html=1;verticalAlign=top;align=left;" parent="1" vertex="1">
          <mxGeometry x="560" y="302.61" width="316" height="200" as="geometry" />
        </mxCell>
        <mxCell id="KbBeaDYyXb4g7AQegkjA-26" style="edgeStyle=orthogonalEdgeStyle;rounded=0;orthogonalLoop=1;jettySize=auto;html=1;" parent="1" source="KbBeaDYyXb4g7AQegkjA-23" target="KbBeaDYyXb4g7AQegkjA-24" edge="1">
          <mxGeometry relative="1" as="geometry" />
        </mxCell>
        <mxCell id="KbBeaDYyXb4g7AQegkjA-23" value="Poll for intents" style="rounded=0;whiteSpace=wrap;html=1;" parent="1" vertex="1">
          <mxGeometry x="590" y="342.61" width="120" height="40" as="geometry" />
        </mxCell>
        <mxCell id="KbBeaDYyXb4g7AQegkjA-24" value="Create Tasks for user intents" style="rounded=0;whiteSpace=wrap;html=1;" parent="1" vertex="1">
          <mxGeometry x="590" y="400.61" width="120" height="42" as="geometry" />
        </mxCell>
        <mxCell id="KbBeaDYyXb4g7AQegkjA-28" value="" style="html=1;verticalLabelPosition=bottom;align=center;labelBackgroundColor=#ffffff;verticalAlign=top;strokeWidth=2;strokeColor=#0080F0;shadow=0;dashed=0;shape=mxgraph.ios7.icons.gauge;" parent="1" vertex="1">
          <mxGeometry x="580" y="332.61" width="20" height="20" as="geometry" />
        </mxCell>
        <mxCell id="KbBeaDYyXb4g7AQegkjA-29" value="Execute Tasks when completed" style="rounded=0;whiteSpace=wrap;html=1;" parent="1" vertex="1">
          <mxGeometry x="740" y="342.61" width="120" height="40" as="geometry" />
        </mxCell>
        <mxCell id="KbBeaDYyXb4g7AQegkjA-30" value="" style="html=1;verticalLabelPosition=bottom;align=center;labelBackgroundColor=#ffffff;verticalAlign=top;strokeWidth=2;strokeColor=#0080F0;shadow=0;dashed=0;shape=mxgraph.ios7.icons.gauge;" parent="1" vertex="1">
          <mxGeometry x="730" y="332.61" width="20" height="20" as="geometry" />
        </mxCell>
        <mxCell id="KbBeaDYyXb4g7AQegkjA-31" value="Poll for failed tasks and create new tasks" style="rounded=0;whiteSpace=wrap;html=1;" parent="1" vertex="1">
          <mxGeometry x="740" y="400.61" width="120" height="40" as="geometry" />
        </mxCell>
        <mxCell id="KbBeaDYyXb4g7AQegkjA-32" value="" style="html=1;verticalLabelPosition=bottom;align=center;labelBackgroundColor=#ffffff;verticalAlign=top;strokeWidth=2;strokeColor=#0080F0;shadow=0;dashed=0;shape=mxgraph.ios7.icons.gauge;" parent="1" vertex="1">
          <mxGeometry x="730" y="390.61" width="20" height="20" as="geometry" />
        </mxCell>
        <mxCell id="KbBeaDYyXb4g7AQegkjA-33" value="Cosmos DB User Tasks Container" style="image;aspect=fixed;html=1;points=[];align=center;fontSize=12;image=img/lib/azure2/databases/Azure_Cosmos_DB.svg;" parent="1" vertex="1">
          <mxGeometry x="618" y="570" width="64" height="64" as="geometry" />
        </mxCell>
        <mxCell id="KbBeaDYyXb4g7AQegkjA-34" style="edgeStyle=orthogonalEdgeStyle;rounded=0;orthogonalLoop=1;jettySize=auto;html=1;entryX=0.487;entryY=0.059;entryDx=0;entryDy=0;entryPerimeter=0;" parent="1" source="KbBeaDYyXb4g7AQegkjA-24" edge="1">
          <mxGeometry relative="1" as="geometry">
            <mxPoint x="649.1680000000001" y="576.3860000000001" as="targetPoint" />
          </mxGeometry>
        </mxCell>
        <mxCell id="KbBeaDYyXb4g7AQegkjA-35" value="&lt;div style=&quot;color: rgb(204, 204, 204); font-family: Consolas, &amp;quot;Courier New&amp;quot;, monospace; line-height: 19px; white-space: pre;&quot;&gt;&lt;div&gt;&lt;span style=&quot;color: #cccccc;&quot;&gt;{&lt;/span&gt;&lt;/div&gt;&lt;div&gt;&lt;span style=&quot;color: #cccccc;&quot;&gt;&amp;nbsp; &amp;nbsp; &lt;/span&gt;&lt;span style=&quot;color: #9cdcfe;&quot;&gt;&quot;user_tasks&quot;&lt;/span&gt;&lt;span style=&quot;color: #cccccc;&quot;&gt; :[&lt;/span&gt;&lt;/div&gt;&lt;div&gt;&lt;span style=&quot;color: #cccccc;&quot;&gt;&amp;nbsp; &amp;nbsp; &amp;nbsp; &amp;nbsp; {&lt;/span&gt;&lt;/div&gt;&lt;div&gt;&lt;span style=&quot;color: #cccccc;&quot;&gt;&amp;nbsp; &amp;nbsp; &amp;nbsp; &amp;nbsp; &amp;nbsp; &amp;nbsp; &lt;/span&gt;&lt;span style=&quot;color: #9cdcfe;&quot;&gt;&quot;user_id&quot;&lt;/span&gt;&lt;span style=&quot;color: #cccccc;&quot;&gt; : &lt;/span&gt;&lt;span style=&quot;color: #ce9178;&quot;&gt;&quot;testuser1&quot;&lt;/span&gt;&lt;span style=&quot;color: #cccccc;&quot;&gt;,&lt;/span&gt;&lt;/div&gt;&lt;div&gt;&lt;span style=&quot;color: #cccccc;&quot;&gt;&amp;nbsp; &amp;nbsp; &amp;nbsp; &amp;nbsp; &amp;nbsp; &amp;nbsp; &lt;/span&gt;&lt;span style=&quot;color: #9cdcfe;&quot;&gt;&quot;user_task&quot;&lt;/span&gt;&lt;span style=&quot;color: #cccccc;&quot;&gt; : &lt;/span&gt;&lt;span style=&quot;color: #ce9178;&quot;&gt;&quot;BackUpTask&quot;&lt;/span&gt;&lt;span style=&quot;color: #cccccc;&quot;&gt;,&lt;/span&gt;&lt;/div&gt;&lt;div&gt;&lt;span style=&quot;color: #cccccc;&quot;&gt;&amp;nbsp; &amp;nbsp; &amp;nbsp; &amp;nbsp; &amp;nbsp; &amp;nbsp; &lt;/span&gt;&lt;span style=&quot;color: #9cdcfe;&quot;&gt;&quot;task_args&quot;&lt;/span&gt;&lt;span style=&quot;color: #cccccc;&quot;&gt; : {&lt;/span&gt;&lt;/div&gt;&lt;div&gt;&lt;span style=&quot;color: #cccccc;&quot;&gt;&amp;nbsp; &amp;nbsp; &amp;nbsp; &amp;nbsp; &amp;nbsp; &amp;nbsp; &amp;nbsp; &amp;nbsp; &lt;/span&gt;&lt;span style=&quot;color: #9cdcfe;&quot;&gt;&quot;files&quot;&lt;/span&gt;&lt;span style=&quot;color: #cccccc;&quot;&gt; : &lt;/span&gt;&lt;span style=&quot;color: #ce9178;&quot;&gt;&quot;xyz&quot;&lt;/span&gt;&lt;span style=&quot;color: #cccccc;&quot;&gt;,&lt;/span&gt;&lt;/div&gt;&lt;div&gt;&lt;span style=&quot;color: #cccccc;&quot;&gt;&amp;nbsp; &amp;nbsp; &amp;nbsp; &amp;nbsp; &amp;nbsp; &amp;nbsp; &amp;nbsp; &amp;nbsp; &lt;/span&gt;&lt;span style=&quot;color: #9cdcfe;&quot;&gt;&quot;servers&quot;&lt;/span&gt;&lt;span style=&quot;color: #cccccc;&quot;&gt; : [&lt;/span&gt;&lt;span style=&quot;color: #ce9178;&quot;&gt;&quot;server1&quot;&lt;/span&gt;&lt;span style=&quot;color: #cccccc;&quot;&gt;, &lt;/span&gt;&lt;span style=&quot;color: #ce9178;&quot;&gt;&quot;server2&quot;&lt;/span&gt;&lt;span style=&quot;color: #cccccc;&quot;&gt;, &lt;/span&gt;&lt;span style=&quot;color: #ce9178;&quot;&gt;&quot;server3&quot;&lt;/span&gt;&lt;span style=&quot;color: #cccccc;&quot;&gt;]&lt;/span&gt;&lt;/div&gt;&lt;div&gt;&lt;span style=&quot;color: #cccccc;&quot;&gt;&amp;nbsp; &amp;nbsp; &amp;nbsp; &amp;nbsp; &amp;nbsp; &amp;nbsp; },&lt;/span&gt;&lt;/div&gt;&lt;div&gt;&lt;span style=&quot;color: #cccccc;&quot;&gt;&amp;nbsp; &amp;nbsp; &amp;nbsp; &amp;nbsp; &amp;nbsp; &amp;nbsp; &lt;/span&gt;&lt;span style=&quot;color: #9cdcfe;&quot;&gt;&quot;task_status&quot;&lt;/span&gt;&lt;span style=&quot;color: #cccccc;&quot;&gt; : &lt;/span&gt;&lt;span style=&quot;color: #ce9178;&quot;&gt;&quot;Pending&quot;&lt;/span&gt;&lt;/div&gt;&lt;div&gt;&lt;span style=&quot;color: #cccccc;&quot;&gt;&amp;nbsp; &amp;nbsp; &amp;nbsp; &amp;nbsp; }&lt;/span&gt;&lt;/div&gt;&lt;div&gt;&lt;span style=&quot;color: #cccccc;&quot;&gt;&amp;nbsp; &amp;nbsp; ]&lt;/span&gt;&lt;/div&gt;&lt;div&gt;&lt;span style=&quot;color: #cccccc;&quot;&gt;}&lt;/span&gt;&lt;/div&gt;&lt;/div&gt;" style="text;whiteSpace=wrap;html=1;labelBackgroundColor=default;fontSize=6;fontStyle=1" parent="1" vertex="1">
          <mxGeometry x="560" y="670" width="200" height="230" as="geometry" />
        </mxCell>
        <UserObject label="&lt;div style=&quot;color: rgb(204, 204, 204); font-family: Consolas, &amp;quot;Courier New&amp;quot;, monospace; line-height: 19px; white-space: pre;&quot;&gt;&lt;div&gt;&lt;span style=&quot;color: #cccccc;&quot;&gt;{&lt;/span&gt;&lt;/div&gt;&lt;div&gt;&lt;span style=&quot;color: #cccccc;&quot;&gt;&amp;nbsp; &amp;nbsp; &lt;/span&gt;&lt;span style=&quot;color: #9cdcfe;&quot;&gt;&quot;user_id&quot;&lt;/span&gt;&lt;span style=&quot;color: #cccccc;&quot;&gt; : &lt;/span&gt;&lt;span style=&quot;color: #ce9178;&quot;&gt;&quot;testuser1@domain.com&quot;&lt;/span&gt;&lt;span style=&quot;color: #cccccc;&quot;&gt;,&lt;/span&gt;&lt;/div&gt;&lt;div&gt;&lt;span style=&quot;color: #cccccc;&quot;&gt;&amp;nbsp; &amp;nbsp; &lt;/span&gt;&lt;span style=&quot;color: #9cdcfe;&quot;&gt;&quot;user_intent&quot;&lt;/span&gt;&lt;span style=&quot;color: #cccccc;&quot;&gt; : &lt;/span&gt;&lt;span style=&quot;color: #ce9178;&quot;&gt;&quot;Backup files xyz on server 1, server 2, server 3&quot;&lt;/span&gt;&lt;span style=&quot;color: #cccccc;&quot;&gt;,&lt;/span&gt;&lt;/div&gt;&lt;div&gt;&lt;span style=&quot;color: #cccccc;&quot;&gt;&amp;nbsp; &amp;nbsp; &lt;/span&gt;&lt;span style=&quot;color: #9cdcfe;&quot;&gt;&quot;conversation_id&quot;&lt;/span&gt;&lt;span style=&quot;color: #cccccc;&quot;&gt; : &lt;/span&gt;&lt;span style=&quot;color: #ce9178;&quot;&gt;&quot;0c2790e5-6827-442a-90de-2f773d171b41&quot;&lt;/span&gt;&lt;span style=&quot;color: #cccccc;&quot;&gt;,&lt;/span&gt;&lt;/div&gt;&lt;div&gt;&lt;span style=&quot;color: #cccccc;&quot;&gt;&amp;nbsp; &amp;nbsp; &lt;/span&gt;&lt;span style=&quot;color: #9cdcfe;&quot;&gt;&quot;intent_created_at&quot;&lt;/span&gt;&lt;span style=&quot;color: #cccccc;&quot;&gt; : &lt;/span&gt;&lt;span style=&quot;color: #ce9178;&quot;&gt;&quot;2025-02-01T12:00:00Z&quot;&lt;/span&gt;&lt;/div&gt;&lt;br&gt;&lt;div&gt;&lt;span style=&quot;color: #cccccc;&quot;&gt;}&lt;/span&gt;&lt;/div&gt;&lt;/div&gt;" link="&lt;div style=&quot;color: #cccccc;background-color: #1f1f1f;font-family: Consolas, &#39;Courier New&#39;, monospace;font-weight: normal;font-size: 14px;line-height: 19px;white-space: pre;&quot;&gt;&lt;div&gt;&lt;span style=&quot;color: #cccccc;&quot;&gt;{&lt;/span&gt;&lt;/div&gt;&lt;div&gt;&lt;span style=&quot;color: #cccccc;&quot;&gt;&amp;nbsp; &amp;nbsp; &lt;/span&gt;&lt;span style=&quot;color: #9cdcfe;&quot;&gt;&quot;user_id&quot;&lt;/span&gt;&lt;span style=&quot;color: #cccccc;&quot;&gt; : &lt;/span&gt;&lt;span style=&quot;color: #ce9178;&quot;&gt;&quot;testuser1@domain.com&quot;&lt;/span&gt;&lt;span style=&quot;color: #cccccc;&quot;&gt;,&lt;/span&gt;&lt;/div&gt;&lt;div&gt;&lt;span style=&quot;color: #cccccc;&quot;&gt;&amp;nbsp; &amp;nbsp; &lt;/span&gt;&lt;span style=&quot;color: #9cdcfe;&quot;&gt;&quot;user_intent&quot;&lt;/span&gt;&lt;span style=&quot;color: #cccccc;&quot;&gt; : &lt;/span&gt;&lt;span style=&quot;color: #ce9178;&quot;&gt;&quot;Backup files xyz on server 1, server 2, server 3&quot;&lt;/span&gt;&lt;span style=&quot;color: #cccccc;&quot;&gt;,&lt;/span&gt;&lt;/div&gt;&lt;div&gt;&lt;span style=&quot;color: #cccccc;&quot;&gt;&amp;nbsp; &amp;nbsp; &lt;/span&gt;&lt;span style=&quot;color: #9cdcfe;&quot;&gt;&quot;conversation_id&quot;&lt;/span&gt;&lt;span style=&quot;color: #cccccc;&quot;&gt; : &lt;/span&gt;&lt;span style=&quot;color: #ce9178;&quot;&gt;&quot;0c2790e5-6827-442a-90de-2f773d171b41&quot;&lt;/span&gt;&lt;span style=&quot;color: #cccccc;&quot;&gt;,&lt;/span&gt;&lt;/div&gt;&lt;div&gt;&lt;span style=&quot;color: #cccccc;&quot;&gt;&amp;nbsp; &amp;nbsp; &lt;/span&gt;&lt;span style=&quot;color: #9cdcfe;&quot;&gt;&quot;intent_created_at&quot;&lt;/span&gt;&lt;span style=&quot;color: #cccccc;&quot;&gt; : &lt;/span&gt;&lt;span style=&quot;color: #ce9178;&quot;&gt;&quot;2025-02-01T12:00:00Z&quot;&lt;/span&gt;&lt;/div&gt;&lt;br&gt;&lt;div&gt;&lt;span style=&quot;color: #cccccc;&quot;&gt;}&lt;/span&gt;&lt;/div&gt;&lt;/div&gt;" id="KbBeaDYyXb4g7AQegkjA-36">
          <mxCell style="text;whiteSpace=wrap;html=1;labelBackgroundColor=default;fontSize=7;fontStyle=1;spacing=0;" parent="1" vertex="1">
            <mxGeometry x="40" y="190" width="276" height="140" as="geometry" />
          </mxCell>
        </UserObject>
        <mxCell id="KVgxJj5szUVQEYvC7GFh-1" value="Actor Instance - MultiAgent" style="rounded=0;whiteSpace=wrap;html=1;verticalAlign=top;align=left;" vertex="1" parent="1">
          <mxGeometry x="910" y="302.61" width="316" height="200" as="geometry" />
        </mxCell>
        <mxCell id="KVgxJj5szUVQEYvC7GFh-2" value="Router" style="rounded=0;whiteSpace=wrap;html=1;" vertex="1" parent="1">
          <mxGeometry x="940" y="382.61" width="120" height="40" as="geometry" />
        </mxCell>
        <mxCell id="KVgxJj5szUVQEYvC7GFh-3" value="Backup Agent" style="rounded=0;whiteSpace=wrap;html=1;" vertex="1" parent="1">
          <mxGeometry x="1090" y="322.61" width="120" height="40" as="geometry" />
        </mxCell>
        <mxCell id="KVgxJj5szUVQEYvC7GFh-4" value="Backup Task Creator" style="rounded=0;whiteSpace=wrap;html=1;" vertex="1" parent="1">
          <mxGeometry x="1090" y="382.61" width="120" height="40" as="geometry" />
        </mxCell>
        <mxCell id="KVgxJj5szUVQEYvC7GFh-5" value="Task Checker" style="rounded=0;whiteSpace=wrap;html=1;" vertex="1" parent="1">
          <mxGeometry x="1090" y="440.61" width="120" height="40" as="geometry" />
        </mxCell>
        <mxCell id="KVgxJj5szUVQEYvC7GFh-7" value="&lt;div style=&quot;color: rgb(204, 204, 204); font-family: Consolas, &amp;quot;Courier New&amp;quot;, monospace; font-size: 14px; line-height: 19px; white-space: pre;&quot;&gt;&lt;div&gt;&lt;span style=&quot;color: #cccccc;&quot;&gt;{&lt;/span&gt;&lt;/div&gt;&lt;div&gt;&lt;span style=&quot;color: #cccccc;&quot;&gt;&amp;nbsp; &amp;nbsp; &lt;/span&gt;&lt;span style=&quot;color: #9cdcfe;&quot;&gt;&quot;user_tasks&quot;&lt;/span&gt;&lt;span style=&quot;color: #cccccc;&quot;&gt; :[&lt;/span&gt;&lt;/div&gt;&lt;div&gt;&lt;span style=&quot;color: #cccccc;&quot;&gt;&amp;nbsp; &amp;nbsp; &amp;nbsp; &amp;nbsp; {&lt;/span&gt;&lt;/div&gt;&lt;div&gt;&lt;span style=&quot;color: #cccccc;&quot;&gt;&amp;nbsp; &amp;nbsp; &amp;nbsp; &amp;nbsp; &amp;nbsp; &amp;nbsp; &lt;/span&gt;&lt;span style=&quot;color: #9cdcfe;&quot;&gt;&quot;user_id&quot;&lt;/span&gt;&lt;span style=&quot;color: #cccccc;&quot;&gt; : &lt;/span&gt;&lt;span style=&quot;color: #ce9178;&quot;&gt;&quot;testuser1&quot;&lt;/span&gt;&lt;span style=&quot;color: #cccccc;&quot;&gt;,&lt;/span&gt;&lt;/div&gt;&lt;div&gt;&lt;span style=&quot;color: #cccccc;&quot;&gt;&amp;nbsp; &amp;nbsp; &amp;nbsp; &amp;nbsp; &amp;nbsp; &amp;nbsp; &lt;/span&gt;&lt;span style=&quot;color: #9cdcfe;&quot;&gt;&quot;user_task&quot;&lt;/span&gt;&lt;span style=&quot;color: #cccccc;&quot;&gt; : &lt;/span&gt;&lt;span style=&quot;color: #ce9178;&quot;&gt;&quot;BackUpTask&quot;&lt;/span&gt;&lt;span style=&quot;color: #cccccc;&quot;&gt;,&lt;/span&gt;&lt;/div&gt;&lt;div&gt;&lt;span style=&quot;color: #cccccc;&quot;&gt;&amp;nbsp; &amp;nbsp; &amp;nbsp; &amp;nbsp; &amp;nbsp; &amp;nbsp; &lt;/span&gt;&lt;span style=&quot;color: #9cdcfe;&quot;&gt;&quot;task_args&quot;&lt;/span&gt;&lt;span style=&quot;color: #cccccc;&quot;&gt; : {&lt;/span&gt;&lt;/div&gt;&lt;div&gt;&lt;span style=&quot;color: #cccccc;&quot;&gt;&amp;nbsp; &amp;nbsp; &amp;nbsp; &amp;nbsp; &amp;nbsp; &amp;nbsp; &amp;nbsp; &amp;nbsp; &lt;/span&gt;&lt;span style=&quot;color: #9cdcfe;&quot;&gt;&quot;files&quot;&lt;/span&gt;&lt;span style=&quot;color: #cccccc;&quot;&gt; : &lt;/span&gt;&lt;span style=&quot;color: #ce9178;&quot;&gt;&quot;xyz&quot;&lt;/span&gt;&lt;span style=&quot;color: #cccccc;&quot;&gt;,&lt;/span&gt;&lt;/div&gt;&lt;div&gt;&lt;span style=&quot;color: #cccccc;&quot;&gt;&amp;nbsp; &amp;nbsp; &amp;nbsp; &amp;nbsp; &amp;nbsp; &amp;nbsp; &amp;nbsp; &amp;nbsp; &lt;/span&gt;&lt;span style=&quot;color: #9cdcfe;&quot;&gt;&quot;servers&quot;&lt;/span&gt;&lt;span style=&quot;color: #cccccc;&quot;&gt; : [&lt;/span&gt;&lt;span style=&quot;color: #ce9178;&quot;&gt;&quot;server1&quot;&lt;/span&gt;&lt;span style=&quot;color: #cccccc;&quot;&gt;, &lt;/span&gt;&lt;span style=&quot;color: #ce9178;&quot;&gt;&quot;server2&quot;&lt;/span&gt;&lt;span style=&quot;color: #cccccc;&quot;&gt;, &lt;/span&gt;&lt;span style=&quot;color: #ce9178;&quot;&gt;&quot;server3&quot;&lt;/span&gt;&lt;span style=&quot;color: #cccccc;&quot;&gt;]&lt;/span&gt;&lt;/div&gt;&lt;div&gt;&lt;span style=&quot;color: #cccccc;&quot;&gt;&amp;nbsp; &amp;nbsp; &amp;nbsp; &amp;nbsp; &amp;nbsp; &amp;nbsp; },&lt;/span&gt;&lt;/div&gt;&lt;div&gt;&lt;span style=&quot;color: #cccccc;&quot;&gt;&amp;nbsp; &amp;nbsp; &amp;nbsp; &amp;nbsp; &amp;nbsp; &amp;nbsp; &lt;/span&gt;&lt;span style=&quot;color: #9cdcfe;&quot;&gt;&quot;task_status&quot;&lt;/span&gt;&lt;span style=&quot;color: #cccccc;&quot;&gt; : &lt;/span&gt;&lt;span style=&quot;color: #ce9178;&quot;&gt;&quot;Pending&quot;&lt;/span&gt;&lt;span style=&quot;color: #cccccc;&quot;&gt;,&lt;/span&gt;&lt;/div&gt;&lt;div&gt;&lt;span style=&quot;color: #cccccc;&quot;&gt;&amp;nbsp; &amp;nbsp; &amp;nbsp; &amp;nbsp; &amp;nbsp; &amp;nbsp; &lt;/span&gt;&lt;span style=&quot;color: #9cdcfe;&quot;&gt;&quot;task_result&quot;&lt;/span&gt;&lt;span style=&quot;color: #cccccc;&quot;&gt; : [&lt;/span&gt;&lt;/div&gt;&lt;br&gt;&lt;div&gt;&lt;span style=&quot;color: #cccccc;&quot;&gt;&amp;nbsp; &amp;nbsp; &amp;nbsp; &amp;nbsp; &amp;nbsp; &amp;nbsp; &amp;nbsp; &amp;nbsp; {&lt;/span&gt;&lt;/div&gt;&lt;div&gt;&lt;span style=&quot;color: #cccccc;&quot;&gt;&amp;nbsp; &amp;nbsp; &amp;nbsp; &amp;nbsp; &amp;nbsp; &amp;nbsp; &amp;nbsp; &amp;nbsp; &amp;nbsp; &amp;nbsp; &lt;/span&gt;&lt;span style=&quot;color: #9cdcfe;&quot;&gt;&quot;task_id&quot;&lt;/span&gt;&lt;span style=&quot;color: #cccccc;&quot;&gt; : &lt;/span&gt;&lt;span style=&quot;color: #ce9178;&quot;&gt;&quot;server1_task&quot;&lt;/span&gt;&lt;span style=&quot;color: #cccccc;&quot;&gt;,&lt;/span&gt;&lt;/div&gt;&lt;div&gt;&lt;span style=&quot;color: #cccccc;&quot;&gt;&amp;nbsp; &amp;nbsp; &amp;nbsp; &amp;nbsp; &amp;nbsp; &amp;nbsp; &amp;nbsp; &amp;nbsp; &amp;nbsp; &amp;nbsp; &lt;/span&gt;&lt;span style=&quot;color: #9cdcfe;&quot;&gt;&quot;task_result&quot;&lt;/span&gt;&lt;span style=&quot;color: #cccccc;&quot;&gt;: { &lt;/span&gt;&lt;span style=&quot;color: #9cdcfe;&quot;&gt;&quot;server1&quot;&lt;/span&gt;&lt;span style=&quot;color: #cccccc;&quot;&gt;: &lt;/span&gt;&lt;span style=&quot;color: #ce9178;&quot;&gt;&quot;Success&quot;&lt;/span&gt;&lt;span style=&quot;color: #cccccc;&quot;&gt;}&lt;/span&gt;&lt;/div&gt;&lt;div&gt;&lt;span style=&quot;color: #cccccc;&quot;&gt;&amp;nbsp; &amp;nbsp; &amp;nbsp; &amp;nbsp; &amp;nbsp; &amp;nbsp; &amp;nbsp; &amp;nbsp; },&lt;/span&gt;&lt;/div&gt;&lt;div&gt;&lt;span style=&quot;color: #cccccc;&quot;&gt;&amp;nbsp; &amp;nbsp; &amp;nbsp; &amp;nbsp; &amp;nbsp; &amp;nbsp; &amp;nbsp; &amp;nbsp; {&lt;/span&gt;&lt;/div&gt;&lt;div&gt;&lt;span style=&quot;color: #cccccc;&quot;&gt;&amp;nbsp; &amp;nbsp; &amp;nbsp; &amp;nbsp; &amp;nbsp; &amp;nbsp; &amp;nbsp; &amp;nbsp; &amp;nbsp; &amp;nbsp; &lt;/span&gt;&lt;span style=&quot;color: #9cdcfe;&quot;&gt;&quot;task_id&quot;&lt;/span&gt;&lt;span style=&quot;color: #cccccc;&quot;&gt; : &lt;/span&gt;&lt;span style=&quot;color: #ce9178;&quot;&gt;&quot;server2_task&quot;&lt;/span&gt;&lt;span style=&quot;color: #cccccc;&quot;&gt;,&lt;/span&gt;&lt;/div&gt;&lt;div&gt;&lt;span style=&quot;color: #cccccc;&quot;&gt;&amp;nbsp; &amp;nbsp; &amp;nbsp; &amp;nbsp; &amp;nbsp; &amp;nbsp; &amp;nbsp; &amp;nbsp; &amp;nbsp; &amp;nbsp; &lt;/span&gt;&lt;span style=&quot;color: #9cdcfe;&quot;&gt;&quot;task_result&quot;&lt;/span&gt;&lt;span style=&quot;color: #cccccc;&quot;&gt;: { &lt;/span&gt;&lt;span style=&quot;color: #9cdcfe;&quot;&gt;&quot;server2&quot;&lt;/span&gt;&lt;span style=&quot;color: #cccccc;&quot;&gt;: &lt;/span&gt;&lt;span style=&quot;color: #ce9178;&quot;&gt;&quot;Success&quot;&lt;/span&gt;&lt;span style=&quot;color: #cccccc;&quot;&gt;}&lt;/span&gt;&lt;/div&gt;&lt;div&gt;&lt;span style=&quot;color: #cccccc;&quot;&gt;&amp;nbsp; &amp;nbsp; &amp;nbsp; &amp;nbsp; &amp;nbsp; &amp;nbsp; &amp;nbsp; &amp;nbsp; },&lt;/span&gt;&lt;/div&gt;&lt;div&gt;&lt;span style=&quot;color: #cccccc;&quot;&gt;&amp;nbsp; &amp;nbsp; &amp;nbsp; &amp;nbsp; &amp;nbsp; &amp;nbsp; &amp;nbsp; &amp;nbsp; {&lt;/span&gt;&lt;/div&gt;&lt;div&gt;&lt;span style=&quot;color: #cccccc;&quot;&gt;&amp;nbsp; &amp;nbsp; &amp;nbsp; &amp;nbsp; &amp;nbsp; &amp;nbsp; &amp;nbsp; &amp;nbsp; &amp;nbsp; &amp;nbsp; &lt;/span&gt;&lt;span style=&quot;color: #9cdcfe;&quot;&gt;&quot;task_id&quot;&lt;/span&gt;&lt;span style=&quot;color: #cccccc;&quot;&gt; : &lt;/span&gt;&lt;span style=&quot;color: #ce9178;&quot;&gt;&quot;server3_task&quot;&lt;/span&gt;&lt;span style=&quot;color: #cccccc;&quot;&gt;,&lt;/span&gt;&lt;/div&gt;&lt;div&gt;&lt;span style=&quot;color: #cccccc;&quot;&gt;&amp;nbsp; &amp;nbsp; &amp;nbsp; &amp;nbsp; &amp;nbsp; &amp;nbsp; &amp;nbsp; &amp;nbsp; &amp;nbsp; &amp;nbsp; &lt;/span&gt;&lt;span style=&quot;color: #9cdcfe;&quot;&gt;&quot;task_result&quot;&lt;/span&gt;&lt;span style=&quot;color: #cccccc;&quot;&gt;: { &lt;/span&gt;&lt;span style=&quot;color: #9cdcfe;&quot;&gt;&quot;server3&quot;&lt;/span&gt;&lt;span style=&quot;color: #cccccc;&quot;&gt;: &lt;/span&gt;&lt;span style=&quot;color: #ce9178;&quot;&gt;&quot;Success&quot;&lt;/span&gt;&lt;span style=&quot;color: #cccccc;&quot;&gt;}&lt;/span&gt;&lt;/div&gt;&lt;div&gt;&lt;span style=&quot;color: #cccccc;&quot;&gt;&amp;nbsp; &amp;nbsp; &amp;nbsp; &amp;nbsp; &amp;nbsp; &amp;nbsp; &amp;nbsp; &amp;nbsp; }&lt;/span&gt;&lt;/div&gt;&lt;div&gt;&lt;span style=&quot;color: #cccccc;&quot;&gt;&amp;nbsp; &amp;nbsp; &amp;nbsp; &amp;nbsp; &amp;nbsp; &amp;nbsp; &amp;nbsp; &amp;nbsp; &lt;/span&gt;&lt;/div&gt;&lt;div&gt;&lt;span style=&quot;color: #cccccc;&quot;&gt;&amp;nbsp; &amp;nbsp; &amp;nbsp; &amp;nbsp; &amp;nbsp; &amp;nbsp; ]&lt;/span&gt;&lt;/div&gt;&lt;div&gt;&lt;span style=&quot;color: #cccccc;&quot;&gt;&amp;nbsp; &amp;nbsp; &amp;nbsp; &amp;nbsp; }&lt;/span&gt;&lt;/div&gt;&lt;div&gt;&lt;span style=&quot;color: #cccccc;&quot;&gt;&amp;nbsp; &amp;nbsp; ]&lt;/span&gt;&lt;/div&gt;&lt;div&gt;&lt;span style=&quot;color: #cccccc;&quot;&gt;}&lt;/span&gt;&lt;/div&gt;&lt;/div&gt;" style="text;whiteSpace=wrap;html=1;labelBackgroundColor=default;fontStyle=1" vertex="1" parent="1">
          <mxGeometry x="1330" y="134" width="500" height="570" as="geometry" />
        </mxCell>
        <mxCell id="KVgxJj5szUVQEYvC7GFh-8" style="edgeStyle=orthogonalEdgeStyle;rounded=0;orthogonalLoop=1;jettySize=auto;html=1;exitX=1;exitY=0.5;exitDx=0;exitDy=0;entryX=-0.01;entryY=0.362;entryDx=0;entryDy=0;entryPerimeter=0;" edge="1" parent="1" source="KVgxJj5szUVQEYvC7GFh-3" target="KVgxJj5szUVQEYvC7GFh-7">
          <mxGeometry relative="1" as="geometry" />
        </mxCell>
        <mxCell id="KVgxJj5szUVQEYvC7GFh-9" value="Cosmos DB User Tasks Container" style="image;aspect=fixed;html=1;points=[];align=center;fontSize=12;image=img/lib/azure2/databases/Azure_Cosmos_DB.svg;" vertex="1" parent="1">
          <mxGeometry x="1560" y="704" width="64" height="64" as="geometry" />
        </mxCell>
      </root>
    </mxGraphModel>
  </diagram>
</mxfile>
